<svg width="28" height="28" viewBox="0 0 28 28" fill="none" xmlns="http://www.w3.org/2000/svg">
<rect width="28" height="28" fill="#FBFBFC"/>
<path d="M23.7326 8.70269C23.1064 8.98019 22.4336 9.16769 21.7264 9.25244C22.4561 8.81578 23.0021 8.12854 23.2624 7.31894C22.5768 7.72618 21.8264 8.01283 21.0439 8.16644C20.5177 7.60458 19.8207 7.23218 19.0611 7.10704C18.3016 6.9819 17.5219 7.11103 16.8433 7.47438C16.1647 7.83772 15.625 8.41496 15.308 9.11646C14.991 9.81797 14.9145 10.6045 15.0904 11.3539C13.7011 11.2842 12.3421 10.9231 11.1014 10.2941C9.86079 9.66513 8.76626 8.78231 7.88887 7.70294C7.58887 8.22044 7.41638 8.82044 7.41638 9.45944C7.41604 10.0347 7.5577 10.6011 7.82878 11.1085C8.09987 11.6159 8.492 12.0485 8.97038 12.3679C8.41558 12.3503 7.87303 12.2004 7.38788 11.9307V11.9757C7.38782 12.7825 7.6669 13.5645 8.17776 14.1889C8.68862 14.8134 9.3998 15.2419 10.1906 15.4017C9.67596 15.541 9.13638 15.5615 8.61263 15.4617C8.83575 16.1559 9.27037 16.763 9.85565 17.1979C10.4409 17.6328 11.1476 17.8738 11.8766 17.8872C10.639 18.8587 9.11054 19.3858 7.53712 19.3834C7.25841 19.3835 6.97993 19.3672 6.70312 19.3347C8.30023 20.3616 10.1594 20.9066 12.0581 20.9044C18.4856 20.9044 21.9994 15.5809 21.9994 10.9639C21.9994 10.8139 21.9956 10.6624 21.9889 10.5124C22.6723 10.0182 23.2623 9.40611 23.7311 8.70494L23.7326 8.70269Z" fill="#19191C"/>
</svg>
